<svg xmlns="http://www.w3.org/2000/svg" width="42.1" height="47"><path fill="#A4C639" d="M34.1 14H8v19.1c0 2 1.5 3.5 3.3 3.6v7.5a2.9 2.9 0 1 0 5.8 0v-7.5h8v7.5a2.9 2.9 0 1 0 5.8 0v-7.5a3.6 3.6 0 0 0 3.4-3.6V14zM2.9 15.7c1.6 0 2.9 1.3 2.9 2.9v12.3c0 1.6-1.3 3-3 3a2.9 2.9 0 0 1-2.8-3V18.6c0-1.6 1.3-3 2.9-3zm36.3 0c1.6 0 2.9 1.3 2.9 2.9v12.3c0 1.6-1.3 3-2.9 3a2.9 2.9 0 0 1-2.9-3V18.6c0-1.6 1.3-3 2.9-3zM8 12h26c0-2.8-1.2-5.4-3.1-7.3L33.3.5c.1-.2 0-.4-.1-.5-.1 0-.3 0-.4.2l-2.4 4C28.4 2.5 24.2 1 21 1c-3 0-7.3 1.5-9.3 3.4L9.3.2a.3.3 0 0 0-.5.3l2.4 4.2c-2 2-3.1 4.5-3.2 7.3zm17.3-5.2c0-.8.7-1.5 1.5-1.5s1.5.7 1.5 1.5-.7 1.5-1.5 1.5-1.5-.7-1.5-1.5zm-11.1 0c0-.8.6-1.5 1.5-1.5.8 0 1.5.7 1.5 1.5s-.7 1.5-1.5 1.5-1.5-.7-1.5-1.5z"/></svg>