<svg xmlns="http://www.w3.org/2000/svg" width="19.7" height="19.7"><path fill="#d22856" d="M9.8 0c-3.5 0-7 .6-8.3 1.9-1 1-1.4 2.9-1.5 4v.2c0 .4.4.8.8.8a493.3 493.3 0 0 0 3.3-.3c.5 0 .8-.3.8-.8V4.2c0-.5.4-1 1-1h8c.5 0 .9.5.9 1v1.6c0 .5.3.8.8.8L19 7a.8.8 0 0 0 .8-1c-.1-1.1-.5-3-1.6-4C17 .6 13.4 0 9.8 0zm0 10.7a1.6 1.6 0 1 0 0 3.3 1.6 1.6 0 0 0 0-3.3zM8.6 7V6a1 1 0 1 0-2 0v1L1 12.9a2 2 0 0 0-.6 1.5V16c0 1 .7 1.6 1.7 1.6h.4v1a1 1 0 1 0 2 0v-1h10.7v1a1 1 0 1 0 2 0v-1h.4c1 0 1.7-.7 1.7-1.6v-1.6c0-.6-.3-1.1-.6-1.5l-5.6-6V6a1 1 0 1 0-2 0v1H8.6zm1.2 2a3.3 3.3 0 1 1 0 6.6 3.3 3.3 0 0 1 0-6.6z"/></svg>